<svg id="Layer_1" data-name="Layer 1" xmlns="http://www.w3.org/2000/svg" xmlns:xlink="http://www.w3.org/1999/xlink" viewBox="0 0 207 154">
  <defs>
    <style>
      .cls-1 {
        fill: url(#linear-gradient);
      }

      .cls-2 {
        fill: url(#linear-gradient-2);
      }

      .cls-3 {
        fill: url(#linear-gradient-3);
      }

      .cls-4 {
        fill: url(#linear-gradient-4);
      }

      .cls-5 {
        fill: url(#linear-gradient-5);
      }

      .cls-6 {
        fill: #fff;
      }
    </style>
    <linearGradient id="linear-gradient" x1="49.23" y1="51.6" x2="165.78" y2="93.94" gradientUnits="userSpaceOnUse">
      <stop offset="0" stop-color="#45e900"/>
      <stop offset="0.99" stop-color="#009401"/>
    </linearGradient>
    <linearGradient id="linear-gradient-2" x1="1" y1="111" x2="49" y2="111" gradientUnits="userSpaceOnUse">
      <stop offset="0" stop-color="#45e900"/>
      <stop offset="1" stop-color="#009401"/>
    </linearGradient>
    <linearGradient id="linear-gradient-3" x1="158" y1="113" x2="206" y2="113" xlink:href="#linear-gradient-2"/>
    <linearGradient id="linear-gradient-4" x1="31" y1="140.5" x2="79" y2="140.5" xlink:href="#linear-gradient-2"/>
    <linearGradient id="linear-gradient-5" x1="128" y1="141.5" x2="176" y2="141.5" xlink:href="#linear-gradient-2"/>
  </defs>
  <g>
    <g>
      <ellipse class="cls-1" cx="104" cy="71.5" rx="62" ry="70.5"/>
      <path d="M150.5,75c33.64,0,61,31.18,61,69.5s-27.36,69.5-61,69.5-61-31.18-61-69.5S116.86,75,150.5,75m0-2c-34.79,0-63,32-63,71.5s28.21,71.5,63,71.5,63-32,63-71.5S185.29,73,150.5,73Z" transform="translate(-46.5 -73)"/>
    </g>
    <g>
      <circle class="cls-2" cx="25" cy="111" r="24"/>
      <path d="M71.5,161a23,23,0,1,1-23,23,23,23,0,0,1,23-23m0-2a25,25,0,1,0,25,25,25,25,0,0,0-25-25Z" transform="translate(-46.5 -73)"/>
    </g>
    <g>
      <circle class="cls-3" cx="182" cy="113" r="24"/>
      <path d="M228.5,163a23,23,0,1,1-23,23,23,23,0,0,1,23-23m0-2a25,25,0,1,0,25,25,25,25,0,0,0-25-25Z" transform="translate(-46.5 -73)"/>
    </g>
    <g>
      <ellipse class="cls-4" cx="55" cy="140.5" rx="24" ry="11.5"/>
      <path d="M101.5,203c13.55,0,23,5.53,23,10.5s-9.45,10.5-23,10.5-23-5.53-23-10.5S88,203,101.5,203m0-2c-13.81,0-25,5.6-25,12.5s11.19,12.5,25,12.5,25-5.6,25-12.5-11.19-12.5-25-12.5Z" transform="translate(-46.5 -73)"/>
    </g>
    <g>
      <ellipse class="cls-5" cx="152" cy="141.5" rx="24" ry="11.5"/>
      <path d="M198.5,204c13.55,0,23,5.53,23,10.5s-9.45,10.5-23,10.5-23-5.53-23-10.5S185,204,198.5,204m0-2c-13.81,0-25,5.6-25,12.5s11.19,12.5,25,12.5,25-5.6,25-12.5-11.19-12.5-25-12.5Z" transform="translate(-46.5 -73)"/>
    </g>
    <g>
      <ellipse class="cls-6" cx="77" cy="41.25" rx="11.5" ry="24.25"/>
      <path d="M123.5,91c5,0,10.5,9.55,10.5,23.25s-5.53,23.25-10.5,23.25S113,128,113,114.25,118.53,91,123.5,91m0-2c-6.9,0-12.5,11.3-12.5,25.25s5.6,25.25,12.5,25.25S136,128.2,136,114.25,130.4,89,123.5,89Z" transform="translate(-46.5 -73)"/>
    </g>
    <g>
      <circle cx="77.5" cy="42.5" r="11.5"/>
      <path d="M124,105a10.5,10.5,0,1,1-10.5,10.5A10.51,10.51,0,0,1,124,105m0-2a12.5,12.5,0,1,0,12.5,12.5A12.5,12.5,0,0,0,124,103Z" transform="translate(-46.5 -73)"/>
    </g>
    <g>
      <ellipse class="cls-6" cx="126.2" cy="39.77" rx="11.5" ry="24.25"/>
      <path d="M172.7,89.52c5,0,10.5,9.55,10.5,23.25S177.67,136,172.7,136s-10.5-9.54-10.5-23.25,5.54-23.25,10.5-23.25m0-2c-6.9,0-12.5,11.31-12.5,25.25S165.8,138,172.7,138s12.5-11.3,12.5-25.25-5.59-25.25-12.5-25.25Z" transform="translate(-46.5 -73)"/>
    </g>
    <g>
      <circle cx="126.5" cy="42.5" r="11.5"/>
      <path d="M173,105a10.5,10.5,0,1,1-10.5,10.5A10.51,10.51,0,0,1,173,105m0-2a12.5,12.5,0,1,0,12.5,12.5A12.5,12.5,0,0,0,173,103Z" transform="translate(-46.5 -73)"/>
    </g>
    <path d="M117.44,168.28l52.9.24,15.15.06a1.5,1.5,0,0,0,0-3l-52.9-.23-15.15-.07a1.5,1.5,0,0,0,0,3Z" transform="translate(-46.5 -73)"/>
  </g>
</svg>
